<?xml version="1.0" encoding="UTF-8" standalone="no"?>
<svg
   xmlns:dc="http://purl.org/dc/elements/1.1/"
   xmlns:cc="http://creativecommons.org/ns#"
   xmlns:rdf="http://www.w3.org/1999/02/22-rdf-syntax-ns#"
   xmlns:svg="http://www.w3.org/2000/svg"
   xmlns="http://www.w3.org/2000/svg"
   xmlns:sodipodi="http://sodipodi.sourceforge.net/DTD/sodipodi-0.dtd"
   xmlns:inkscape="http://www.inkscape.org/namespaces/inkscape"
   role="img"
   viewBox="0 0 24 24"
   version="1.1"
   id="svg6"
   sodipodi:docname="gnometerminal.svg"
   inkscape:version="0.92.3 (2405546, 2018-03-11)">
  <metadata
     id="metadata12">
    <rdf:RDF>
      <cc:Work
         rdf:about="">
        <dc:format>image/svg+xml</dc:format>
        <dc:type
           rdf:resource="http://purl.org/dc/dcmitype/StillImage" />
      </cc:Work>
    </rdf:RDF>
  </metadata>
  <defs
     id="defs10" />
  <sodipodi:namedview
     pagecolor="#ffffff"
     bordercolor="#666666"
     borderopacity="1"
     objecttolerance="10"
     gridtolerance="10"
     guidetolerance="10"
     inkscape:pageopacity="0"
     inkscape:pageshadow="2"
     inkscape:window-width="1920"
     inkscape:window-height="1023"
     id="namedview8"
     showgrid="false"
     inkscape:zoom="29.000651"
     inkscape:cx="12"
     inkscape:cy="11.79661"
     inkscape:window-x="0"
     inkscape:window-y="32"
     inkscape:window-maximized="1"
     inkscape:current-layer="svg6" />
  <title
     id="title2">GNOME Terminal</title>
  <path
     d="M 1.846,0 A 1.841,1.841 0 0 0 0,1.846 v 18.463 c 0,1.022 0.823,1.845 1.846,1.845 H 22.154 A 1.841,1.841 0 0 0 24,20.31 V 1.846 A 1.841,1.841 0 0 0 22.154,0 Z"
     id="path832" />
  <path
     d="m 1.846,0.924 h 20.308 c 0.512,0 0.922,0.41 0.922,0.922 v 18.463 c 0,0.511 -0.41,0.921 -0.922,0.921 H 1.846 A 0.919,0.919 0 0 1 0.924,20.309 V 1.846 c 0,-0.512 0.41,-0.922 0.922,-0.922 z"
     id="path830"
     style="fill:#ffff00" />
  <path
     d="M 1.846,1.846 V 20.309 H 22.154 V 1.846 Z"
     id="path828" />
  <path
     d="M 3.691,3.986 6.926,5.744 V 6.58 L 3.69,8.477 V 7.385 L 5.933,6.178 V 6.145 L 3.69,5.076 v -1.09 z"
     id="path826"
     style="fill:#ffff00" />
  <path
     d="m 7.846,9.23 h 3.693 v 0.924 H 7.846 Z"
     id="path824"
     style="fill:#ffff00" />
  <path
     d="m 0,21.736 v 0.418 C 0,23.177 0.823,24 1.846,24 H 22.154 A 1.841,1.841 0 0 0 24,22.154 v -0.418 a 2.334,2.334 0 0 1 -1.846,0.918 H 1.846 A 2.334,2.334 0 0 1 0,21.736 Z"
     id="path4" />
  <text
     xml:space="preserve"
     style="font-style:normal;font-variant:normal;font-weight:normal;font-stretch:normal;font-size:5.33333349px;line-height:39.50000107%;font-family:sans-serif;-inkscape-font-specification:sans-serif;font-variant-ligatures:normal;font-variant-caps:normal;font-variant-numeric:normal;font-feature-settings:normal;text-align:start;letter-spacing:0px;word-spacing:0px;writing-mode:lr-tb;text-anchor:start;fill:#000000;fill-opacity:1;stroke:none;stroke-width:1px;stroke-linecap:butt;stroke-linejoin:miter;stroke-opacity:1"
     x="6.8963976"
     y="18.10358"
     id="text836"><tspan
       sodipodi:role="line"
       id="tspan834"
       x="6.8963976"
       y="18.10358"
       style="fill:#ffff00">ssh</tspan></text>
</svg>
